Coordinates
version=1
nRows=38
nColumns=12
inDegrees=yes

Units are S.I. units (second, meters, Newtons, ...)
Angles are in degrees

endheader
time	SC_y	SC_z	SC_x	AC_y	AC_z	AC_x	GH_y	GH_z	GH_yy	EL_x	PS_y
       0.0              -25.58          38.88          51.14          53.71         -6.423          15.01         -118.1         -11.37         -8.382          38.52          144.1
   0.02537              -25.58          38.88          51.13          53.71         -6.422           15.0         -118.1         -11.37         -8.393          38.51          144.1
   0.05074              -25.57          38.88          51.13          53.71         -6.421           15.0         -118.1         -11.36         -8.406          38.51          144.0
   0.07611              -25.57          38.87          51.13          53.71         -6.419          14.99         -118.0         -11.35         -8.418          38.51          144.0
    0.1015              -25.57          38.87          51.13          53.71         -6.418          14.99         -118.0         -11.34         -8.432           38.5          144.0
    0.1269              -25.57          38.87          51.12          53.71         -6.417          14.98         -118.0         -11.33         -8.447           38.5          144.0
    0.1522              -25.56          38.87          51.12          53.71         -6.415          14.98         -118.0         -11.33         -8.463           38.5          144.0
    0.1776              -25.56          38.87          51.12          53.71         -6.413          14.97         -118.0         -11.32         -8.479          38.49          144.0
     0.203              -25.56          38.87          51.12          53.71         -6.412          14.96         -117.9          -11.3         -8.497          38.49          143.9
    0.2283              -25.55          38.87          51.11          53.71          -6.41          14.96         -117.9         -11.29         -8.517          38.49          143.9
    0.2537              -25.55          38.87          51.11          53.71         -6.408          14.95         -117.9         -11.28         -8.537          38.48          143.9
    0.2791              -25.55          38.86           51.1          53.71         -6.405          14.94         -117.8         -11.27         -8.559          38.48          143.9
    0.3045              -25.54          38.86           51.1           53.7         -6.403          14.93         -117.8         -11.25         -8.583          38.47          143.8
    0.3298              -25.54          38.86          51.09           53.7         -6.401          14.92         -117.8         -11.24         -8.609          38.46          143.8
    0.3552              -25.53          38.86          51.09           53.7         -6.398          14.91         -117.7         -11.22         -8.637          38.46          143.8
    0.3806              -25.53          38.86          51.08           53.7         -6.395           14.9         -117.7          -11.2         -8.668          38.45          143.7
    0.4059              -25.52          38.86          51.08           53.7         -6.392          14.89         -117.6         -11.18         -8.701          38.44          143.7
    0.4313              -25.51          38.85          51.07           53.7         -6.388          14.87         -117.6         -11.16         -8.737          38.44          143.7
    0.4567              -25.51          38.85          51.06           53.7         -6.384          14.86         -117.5         -11.13         -8.776          38.43          143.6
    0.4821               -25.5          38.85          51.06           53.7          -6.38          14.84         -117.5         -11.11         -8.819          38.42          143.6
    0.5074              -25.49          38.84          51.05           53.7         -6.375          14.83         -117.4         -11.08         -8.866          38.41          143.5
    0.5328              -25.48          38.84          51.04           53.7          -6.37          14.81         -117.3         -11.05         -8.918          38.39          143.5
    0.5582              -25.47          38.84          51.03           53.7         -6.365          14.79         -117.2         -11.01         -8.976          38.38          143.4
    0.5835              -25.46          38.83          51.01           53.7         -6.358          14.76         -117.1         -10.97          -9.04          38.37          143.3
    0.6089              -25.45          38.83           51.0           53.7         -6.351          14.74         -117.0         -10.93          -9.11          38.35          143.3
    0.6343              -25.43          38.82          50.99           53.7         -6.344          14.71         -116.9         -10.88         -9.189          38.33          143.2
    0.6596              -25.42          38.82          50.97           53.7         -6.335          14.67         -116.8         -10.83         -9.278          38.31          143.1
     0.685               -25.4          38.81          50.95           53.7         -6.325          14.64         -116.6         -10.77         -9.377          38.29          143.0
    0.7104              -25.38           38.8          50.93           53.7         -6.314          14.59         -116.5          -10.7          -9.49          38.26          142.8
    0.7358              -25.35          38.79          50.91          53.69         -6.302          14.55         -116.3         -10.62         -9.617          38.23          142.7
    0.7611              -25.33          38.78          50.88          53.69         -6.287          14.49         -116.1         -10.53         -9.763           38.2          142.5
    0.7865               -25.3          38.77          50.85          53.69         -6.271          14.43         -115.8         -10.43          -9.93          38.16          142.3
    0.8119              -25.26          38.76          50.81          53.69         -6.252          14.36         -115.5         -10.32         -10.12          38.12          142.1
    0.8372              -25.22          38.74          50.77          53.69          -6.23          14.27         -115.2         -10.18         -10.35          38.07          141.9
    0.8626              -25.18          38.73          50.72          53.68         -6.204          14.18         -114.8         -10.02         -10.61          38.01          141.6
     0.888              -25.12          38.71          50.66          53.68         -6.174          14.06         -114.3         -9.831         -10.92          37.94          141.2
    0.9134              -25.05          38.68           50.6          53.68         -6.138          13.92         -113.8         -9.607         -11.29          37.86          140.8
    0.9387              -24.97          38.65          50.51          53.67         -6.095          13.76         -113.2         -9.339         -11.73          37.76          140.3
